<svg width="92" height="48" viewBox="0 0 92 48" fill="none" xmlns="http://www.w3.org/2000/svg">
<path d="M20.987 0C27.8092 0 33.0126 1.64774 36.5972 4.94322C40.2395 8.18088 42.0607 13.0952 42.0607 19.6861V46.8305H31.8274V41.1935C30.4976 43.217 28.5897 44.778 26.1037 45.8765C23.6754 46.9172 20.7268 47.4375 17.2579 47.4375C13.789 47.4375 10.7537 46.8594 8.15198 45.7031C5.55028 44.489 3.52674 42.8412 2.08136 40.7599C0.69379 38.6207 0 36.2214 0 33.5618C0 29.3991 1.53211 26.0747 4.59633 23.5887C7.71836 21.0448 12.6038 19.7729 19.2525 19.7729H31.2203V19.0791C31.2203 15.8414 30.2375 13.3554 28.2717 11.6209C26.3638 9.88643 23.502 9.0192 19.6861 9.0192C17.0844 9.0192 14.5117 9.42391 11.9678 10.2333C9.48173 11.0427 7.37146 12.1701 5.63699 13.6155L1.38757 5.72372C3.81582 3.87363 6.7355 2.45715 10.1466 1.47429C13.5577 0.49143 17.1712 0 20.987 0ZM19.5127 39.5457C22.23 39.5457 24.6294 38.9387 26.7107 37.7246C28.8499 36.4526 30.3531 34.6603 31.2203 32.3477V26.9709H20.033C13.789 26.9709 10.6669 29.0233 10.6669 33.1282C10.6669 35.094 11.4475 36.655 13.0085 37.8113C14.5695 38.9676 16.7376 39.5457 19.5127 39.5457Z" fill="white"/>
<path d="M70.2823 47.4375C66.5243 47.4375 62.853 46.9461 59.2684 45.9632C55.6839 44.9804 52.822 43.7374 50.6828 42.2342L54.8456 33.9955C56.9269 35.383 59.413 36.5104 62.3038 37.3777C65.2523 38.1871 68.1431 38.5918 70.9761 38.5918C77.4514 38.5918 80.689 36.8862 80.689 33.4751C80.689 31.8563 79.8507 30.7289 78.1741 30.0929C76.5553 29.4569 73.9246 28.8499 70.2823 28.2717C66.4665 27.6936 63.3444 27.0287 60.9162 26.2771C58.5457 25.5255 56.4644 24.2247 54.6721 22.3746C52.9377 20.4667 52.0704 17.8361 52.0704 14.4828C52.0704 10.0888 53.8916 6.59095 57.534 3.98926C61.2342 1.32975 66.2063 0 72.4504 0C75.6302 0 78.8101 0.3758 81.9899 1.1274C85.1698 1.82118 87.7714 2.77514 89.795 3.98926L85.6323 12.228C81.7008 9.91534 77.2779 8.75903 72.3636 8.75903C69.1838 8.75903 66.7555 9.25046 65.0789 10.2333C63.4601 11.1584 62.6507 12.4014 62.6507 13.9624C62.6507 15.6969 63.5179 16.9399 65.2523 17.6915C67.0446 18.3853 69.7909 19.0502 73.491 19.6861C77.1912 20.2643 80.2265 20.9292 82.597 21.6808C84.9674 22.4324 86.9909 23.7043 88.6676 25.4966C90.402 27.2889 91.2693 29.8327 91.2693 33.1282C91.2693 37.4644 89.3903 40.9333 85.6323 43.535C81.8743 46.1367 76.7576 47.4375 70.2823 47.4375Z" fill="white"/>
</svg>
