<svg width="48" height="48" viewBox="0 0 48 48" fill="none" xmlns="http://www.w3.org/2000/svg">
<rect width="48" height="48" rx="14" transform="matrix(1.06475e-07 -1 -1 -1.06475e-07 48 48)" fill="#0C0118" fill-opacity="0.05"/>
<path d="M24.1161 18.1161C24.6043 17.628 25.3957 17.628 25.8839 18.1161C26.372 18.6043 26.372 19.3957 25.8839 19.8839L24.1161 18.1161ZM25.8839 28.1161C26.372 28.6043 26.372 29.3957 25.8839 29.8839C25.3957 30.372 24.6043 30.372 24.1161 29.8839L25.8839 28.1161ZM21.4142 25.4142L22.2981 24.5303L21.4142 25.4142ZM20.5303 21.7019L24.1161 18.1161L25.8839 19.8839L22.2981 23.4697L20.5303 21.7019ZM22.2981 24.5303L25.8839 28.1161L24.1161 29.8839L20.5303 26.2981L22.2981 24.5303ZM22.2981 23.4697C22.0052 23.7626 22.0052 24.2374 22.2981 24.5303L20.5303 26.2981C19.2611 25.0289 19.2611 22.9711 20.5303 21.7019L22.2981 23.4697Z" fill="#9E99A3"/>
</svg>
