<svg width="24" height="24" viewBox="0 0 24 24" fill="none" xmlns="http://www.w3.org/2000/svg">
<path d="M9 4.25C9.69036 4.25 10.25 3.69036 10.25 3C10.25 2.30964 9.69036 1.75 9 1.75V4.25ZM22.25 15C22.25 14.3096 21.6904 13.75 21 13.75C20.3096 13.75 19.75 14.3096 19.75 15H22.25ZM7 22.25H17V19.75H7V22.25ZM1.75 7V17H4.25V7H1.75ZM9 1.75H7V4.25H9V1.75ZM22.25 17V15H19.75V17H22.25ZM4.25 7C4.25 5.48122 5.48122 4.25 7 4.25V1.75C4.1005 1.75 1.75 4.10051 1.75 7H4.25ZM17 22.25C19.8995 22.25 22.25 19.8995 22.25 17H19.75C19.75 18.5188 18.5188 19.75 17 19.75V22.25ZM7 19.75C5.48122 19.75 4.25 18.5188 4.25 17H1.75C1.75 19.8995 4.10051 22.25 7 22.25V19.75Z" fill="#0C0118"/>
<path d="M12.1161 10.1161C11.628 10.6043 11.628 11.3957 12.1161 11.8839C12.6043 12.372 13.3957 12.372 13.8839 11.8839L12.1161 10.1161ZM21 3H22.25C22.25 2.30964 21.6904 1.75 21 1.75V3ZM15 1.75C14.3096 1.75 13.75 2.30964 13.75 3C13.75 3.69036 14.3096 4.25 15 4.25V1.75ZM19.75 9C19.75 9.69036 20.3096 10.25 21 10.25C21.6904 10.25 22.25 9.69036 22.25 9H19.75ZM13.8839 11.8839L21.8839 3.88388L20.1161 2.11612L12.1161 10.1161L13.8839 11.8839ZM21 1.75H15V4.25H21V1.75ZM19.75 3V9H22.25V3H19.75Z" fill="#0C0118"/>
</svg>
