<svg width="114" height="47" viewBox="0 0 114 47" fill="none" xmlns="http://www.w3.org/2000/svg">
<path d="M15.1512 24.5379L9.24045 10.7547H5.91079L0 24.5379H3.35547L7.64015 14.3166L12.0539 24.5379H15.1512Z" fill="white"/>
<path d="M23.3679 25.1807C21.9741 25.1807 20.7179 24.8795 19.5994 24.2773C18.4809 23.675 17.6034 22.8405 16.9667 21.7736C16.3472 20.6895 16.0375 19.4678 16.0375 18.1084C16.0375 16.749 16.3472 15.5358 16.9667 14.469C17.6034 13.4021 18.4809 12.5675 19.5994 11.9653C20.7179 11.363 21.9741 11.0619 23.3679 11.0619C24.7789 11.0619 26.0437 11.363 27.1621 11.9653C28.2806 12.5675 29.1496 13.4021 29.7691 14.469C30.4058 15.5358 30.7241 16.749 30.7241 18.1084C30.7241 19.4678 30.4058 20.6895 29.7691 21.7736C29.1496 22.8405 28.2806 23.675 27.1621 24.2773C26.0437 24.8795 24.7789 25.1807 23.3679 25.1807ZM23.3679 22.4189C24.5552 22.4189 25.536 22.0231 26.3104 21.2315C27.0847 20.44 27.4719 19.3989 27.4719 18.1084C27.4719 16.8178 27.0847 15.7768 26.3104 14.9852C25.536 14.1937 24.5552 13.7979 23.3679 13.7979C22.1806 13.7979 21.1997 14.1937 20.4254 14.9852C19.6683 15.7768 19.2897 16.8178 19.2897 18.1084C19.2897 19.3989 19.6683 20.44 20.4254 21.2315C21.1997 22.0231 22.1806 22.4189 23.3679 22.4189ZM46.3369 11.2168L40.4261 25H37.0965L31.1857 11.2168H34.5412L38.8258 21.438L43.2396 11.2168H46.3369ZM60.9326 18.1858C60.9326 18.4095 60.9154 18.7278 60.881 19.1408H50.0661C50.2553 20.1561 50.7458 20.9648 51.5373 21.5671C52.3461 22.1522 53.3441 22.4447 54.5314 22.4447C56.0457 22.4447 57.2932 21.9457 58.2741 20.9476L60.0034 22.9351C59.384 23.675 58.601 24.2343 57.6546 24.6128C56.7082 24.9914 55.6413 25.1807 54.454 25.1807C52.9397 25.1807 51.6061 24.8795 50.4532 24.2773C49.3003 23.675 48.4055 22.8405 47.7689 21.7736C47.1494 20.6895 46.8397 19.4678 46.8397 18.1084C46.8397 16.7662 47.1408 15.5617 47.743 14.4948C48.3625 13.4107 49.2143 12.5675 50.2984 11.9653C51.3824 11.363 52.6042 11.0619 53.9636 11.0619C55.3058 11.0619 56.5017 11.363 57.5513 11.9653C58.6182 12.5503 59.4442 13.3849 60.0292 14.469C60.6315 15.5358 60.9326 16.7748 60.9326 18.1858ZM53.9636 13.643C52.9311 13.643 52.0535 13.9528 51.3308 14.5722C50.6253 15.1745 50.1951 15.9832 50.0403 16.9985H57.8611C57.7234 16.0005 57.3018 15.1917 56.5963 14.5722C55.8908 13.9528 55.0132 13.643 53.9636 13.643ZM64.0318 5.848H67.2582V25H64.0318V5.848ZM71.4929 5.848H74.7193V25H71.4929V5.848ZM78.954 5.848H82.1804V25H78.954V5.848ZM91.6806 11.0619C93.7111 11.0619 95.2597 11.5523 96.3266 12.5331C97.4107 13.4968 97.9527 14.9594 97.9527 16.9211V25H94.907V23.3223C94.5112 23.9245 93.9434 24.3891 93.2034 24.7161C92.4807 25.0258 91.6031 25.1807 90.5707 25.1807C89.5382 25.1807 88.6348 25.0086 87.8605 24.6645C87.0862 24.3031 86.4839 23.8127 86.0537 23.1932C85.6407 22.5565 85.4342 21.8424 85.4342 21.0509C85.4342 19.8119 85.8902 18.8225 86.8022 18.0826C87.7314 17.3254 89.1855 16.9469 91.1643 16.9469H94.7263V16.7404C94.7263 15.7768 94.4338 15.0368 93.8487 14.5206C93.2809 14.0044 92.4291 13.7463 91.2934 13.7463C90.5191 13.7463 89.7533 13.8667 88.9962 14.1076C88.2563 14.3485 87.6282 14.6841 87.112 15.1143L85.8472 12.7654C86.5699 12.2148 87.4389 11.7932 88.4542 11.5007C89.4694 11.2082 90.5449 11.0619 91.6806 11.0619ZM91.2418 22.8318C92.0505 22.8318 92.7646 22.6512 93.3841 22.2898C94.0208 21.9112 94.4682 21.3778 94.7263 20.6895V19.0892H91.3966C89.5382 19.0892 88.609 19.7001 88.609 20.9218C88.609 21.5069 88.8413 21.9715 89.3059 22.3156C89.7705 22.6598 90.4158 22.8318 91.2418 22.8318ZM106.352 25.1807C105.234 25.1807 104.141 25.0344 103.074 24.7419C102.007 24.4494 101.156 24.0794 100.519 23.632L101.758 21.1799C102.377 21.5929 103.117 21.9285 103.978 22.1866C104.855 22.4275 105.716 22.5479 106.559 22.5479C108.486 22.5479 109.45 22.0403 109.45 21.0251C109.45 20.5432 109.2 20.2077 108.701 20.0184C108.219 19.8291 107.436 19.6485 106.352 19.4764C105.217 19.3043 104.287 19.1064 103.565 18.8827C102.859 18.659 102.24 18.2718 101.706 17.7212C101.19 17.1534 100.932 16.3704 100.932 15.3724C100.932 14.0646 101.474 13.0235 102.558 12.2492C103.659 11.4577 105.139 11.0619 106.998 11.0619C107.944 11.0619 108.89 11.1737 109.837 11.3974C110.783 11.6039 111.558 11.8878 112.16 12.2492L110.921 14.7013C109.751 14.013 108.434 13.6688 106.972 13.6688C106.025 13.6688 105.303 13.8151 104.804 14.1076C104.322 14.3829 104.081 14.7529 104.081 15.2175C104.081 15.7337 104.339 16.1037 104.855 16.3274C105.389 16.5339 106.206 16.7318 107.307 16.9211C108.409 17.0931 109.312 17.291 110.017 17.5147C110.723 17.7384 111.325 18.117 111.824 18.6504C112.341 19.1838 112.599 19.941 112.599 20.9218C112.599 22.2124 112.039 23.2448 110.921 24.0192C109.802 24.7935 108.28 25.1807 106.352 25.1807Z" fill="white"/>
<path d="M50.5668 41.9167V44.6167H49.1628V43.1887H44.2188V44.6167H42.8268V41.9167H43.1268C43.5348 41.9007 43.8108 41.6407 43.9548 41.1367C44.1068 40.6247 44.2068 39.9047 44.2548 38.9767L44.3388 36.7807H49.6188V41.9167H50.5668ZM45.6228 39.0847C45.5908 39.8207 45.5308 40.4207 45.4428 40.8847C45.3548 41.3487 45.1948 41.6927 44.9628 41.9167H48.1188V38.0527H45.6588L45.6228 39.0847ZM51.9064 36.7807H53.4064V41.0047L56.9464 36.7807H58.3144V43.1887H56.8144V38.9647L53.2864 43.1887H51.9064V36.7807ZM64.0782 39.8527C64.4782 39.9647 64.7862 40.1487 65.0022 40.4047C65.2262 40.6527 65.3382 40.9527 65.3382 41.3047C65.3382 41.6967 65.2062 42.0447 64.9422 42.3487C64.6782 42.6447 64.3142 42.8767 63.8502 43.0447C63.3862 43.2127 62.8582 43.2967 62.2662 43.2967C61.7702 43.2967 61.2862 43.2407 60.8142 43.1287C60.3422 43.0087 59.9142 42.8407 59.5302 42.6247L59.9622 41.5087C60.2742 41.6847 60.6262 41.8207 61.0182 41.9167C61.4102 42.0127 61.8022 42.0607 62.1942 42.0607C62.6982 42.0607 63.0902 41.9847 63.3702 41.8327C63.6582 41.6727 63.8022 41.4567 63.8022 41.1847C63.8022 40.9367 63.6902 40.7447 63.4662 40.6087C63.2502 40.4727 62.9422 40.4047 62.5422 40.4047H61.2942V39.3967H62.4222C62.7982 39.3967 63.0902 39.3327 63.2982 39.2047C63.5142 39.0767 63.6222 38.8967 63.6222 38.6647C63.6222 38.4327 63.4942 38.2487 63.2382 38.1127C62.9822 37.9767 62.6302 37.9087 62.1822 37.9087C61.5422 37.9087 60.8662 38.0647 60.1542 38.3767L59.7702 37.2727C60.6102 36.8807 61.4582 36.6847 62.3142 36.6847C62.8582 36.6847 63.3462 36.7607 63.7782 36.9127C64.2102 37.0567 64.5462 37.2647 64.7862 37.5367C65.0342 37.8007 65.1582 38.1047 65.1582 38.4487C65.1582 38.7607 65.0622 39.0407 64.8702 39.2887C64.6782 39.5287 64.4142 39.7167 64.0782 39.8527ZM69.2827 36.7087C70.2267 36.7087 70.9467 36.9367 71.4427 37.3927C71.9467 37.8407 72.1987 38.5207 72.1987 39.4327V43.1887H70.7827V42.4087C70.5987 42.6887 70.3347 42.9047 69.9907 43.0567C69.6547 43.2007 69.2467 43.2727 68.7667 43.2727C68.2867 43.2727 67.8667 43.1927 67.5067 43.0327C67.1467 42.8647 66.8667 42.6367 66.6667 42.3487C66.4747 42.0527 66.3787 41.7207 66.3787 41.3527C66.3787 40.7767 66.5907 40.3167 67.0147 39.9727C67.4467 39.6207 68.1227 39.4447 69.0427 39.4447H70.6987V39.3487C70.6987 38.9007 70.5627 38.5567 70.2907 38.3167C70.0267 38.0767 69.6307 37.9567 69.1027 37.9567C68.7427 37.9567 68.3867 38.0127 68.0347 38.1247C67.6907 38.2367 67.3987 38.3927 67.1587 38.5927L66.5707 37.5007C66.9067 37.2447 67.3107 37.0487 67.7827 36.9127C68.2547 36.7767 68.7547 36.7087 69.2827 36.7087ZM69.0787 42.1807C69.4547 42.1807 69.7867 42.0967 70.0747 41.9287C70.3707 41.7527 70.5787 41.5047 70.6987 41.1847V40.4407H69.1507C68.2867 40.4407 67.8547 40.7247 67.8547 41.2927C67.8547 41.5647 67.9627 41.7807 68.1787 41.9407C68.3947 42.1007 68.6947 42.1807 69.0787 42.1807ZM74.0549 36.7807H75.5549V41.0047L79.0949 36.7807H80.4629V43.1887H78.9629V38.9647L75.4349 43.1887H74.0549V36.7807ZM77.1629 36.0247C76.5149 36.0247 76.0189 35.8767 75.6749 35.5807C75.3389 35.2767 75.1669 34.8367 75.1589 34.2607H76.1549C76.1629 34.5487 76.2509 34.7767 76.4189 34.9447C76.5949 35.1127 76.8389 35.1967 77.1509 35.1967C77.4549 35.1967 77.6949 35.1127 77.8709 34.9447C78.0549 34.7767 78.1509 34.5487 78.1589 34.2607H79.1789C79.1709 34.8367 78.9949 35.2767 78.6509 35.5807C78.3069 35.8767 77.8109 36.0247 77.1629 36.0247ZM82.4807 36.7807H83.9807V39.3847H87.2087V36.7807H88.7087V43.1887H87.2087V40.6567H83.9807V43.1887H82.4807V36.7807ZM96.9513 43.2727C96.2873 43.2727 95.6913 43.1327 95.1633 42.8527C94.6353 42.5727 94.2233 42.1847 93.9273 41.6887C93.6313 41.1847 93.4833 40.6167 93.4833 39.9847C93.4833 39.3527 93.6313 38.7887 93.9273 38.2927C94.2233 37.7967 94.6313 37.4087 95.1513 37.1287C95.6793 36.8487 96.2793 36.7087 96.9513 36.7087C97.5833 36.7087 98.1353 36.8367 98.6073 37.0927C99.0873 37.3487 99.4473 37.7167 99.6873 38.1967L98.5353 38.8687C98.3513 38.5727 98.1193 38.3527 97.8393 38.2087C97.5673 38.0567 97.2673 37.9807 96.9393 37.9807C96.3793 37.9807 95.9153 38.1647 95.5473 38.5327C95.1793 38.8927 94.9953 39.3767 94.9953 39.9847C94.9953 40.5927 95.1753 41.0807 95.5353 41.4487C95.9033 41.8087 96.3713 41.9887 96.9393 41.9887C97.2673 41.9887 97.5673 41.9167 97.8393 41.7727C98.1193 41.6207 98.3513 41.3967 98.5353 41.1007L99.6873 41.7727C99.4393 42.2527 99.0753 42.6247 98.5953 42.8887C98.1233 43.1447 97.5753 43.2727 96.9513 43.2727Z" fill="white" fill-opacity="0.6"/>
<path d="M108.597 43.1886H108.425C108.16 43.1886 107.907 43.0833 107.71 42.9061C106.472 41.7943 103.809 39.8057 104.011 38.1886C104.188 36.7699 105.801 36.1628 107.011 36.6886C108.055 37.1426 108.5 38 108.5 38C108.5 38 108.967 37.1426 110.011 36.6886C111.22 36.1628 112.834 36.7699 113.011 38.1886C113.213 39.8057 110.55 41.7943 109.312 42.9061C109.115 43.0833 108.862 43.1886 108.597 43.1886Z" fill="white" fill-opacity="0.6"/>
</svg>
