<svg width="205" height="48" viewBox="0 0 205 48" fill="none" xmlns="http://www.w3.org/2000/svg">
<path d="M50.9065 46.3101L31.0469 0H19.8596L0 46.3101H11.274L25.67 11.9678L40.4997 46.3101H50.9065Z" fill="white"/>
<path d="M78.5134 47.4375C73.8303 47.4375 69.6098 46.4258 65.8518 44.4022C62.0938 42.3787 59.1452 39.5746 57.0061 35.9901C54.9247 32.3477 53.884 28.2428 53.884 23.6754C53.884 19.108 54.9247 15.032 57.0061 11.4474C59.1452 7.86289 62.0938 5.05885 65.8518 3.03531C69.6098 1.01177 73.8303 0 78.5134 0C83.2543 0 87.5037 1.01177 91.2617 3.03531C95.0197 5.05885 97.9394 7.86289 100.021 11.4474C102.16 15.032 103.229 19.108 103.229 23.6754C103.229 28.2428 102.16 32.3477 100.021 35.9901C97.9394 39.5746 95.0197 42.3787 91.2617 44.4022C87.5037 46.4258 83.2543 47.4375 78.5134 47.4375ZM78.5134 38.1582C82.5027 38.1582 85.7981 36.8284 88.3998 34.1689C91.0015 31.5094 92.3024 28.0116 92.3024 23.6754C92.3024 19.3393 91.0015 15.8414 88.3998 13.1819C85.7981 10.5224 82.5027 9.19265 78.5134 9.19265C74.5241 9.19265 71.2287 10.5224 68.627 13.1819C66.0831 15.8414 64.8111 19.3393 64.8111 23.6754C64.8111 28.0116 66.0831 31.5094 68.627 34.1689C71.2287 36.8284 74.5241 38.1582 78.5134 38.1582Z" fill="white"/>
<path d="M155.687 0.520336L135.827 46.8305H124.64L104.78 0.520336H116.054L130.45 34.8627L145.28 0.520336H155.687Z" fill="white"/>
<path d="M204.727 23.9356C204.727 24.6872 204.669 25.7568 204.553 27.1443H168.216C168.852 30.5554 170.5 33.2728 173.159 35.2963C175.877 37.262 179.23 38.2449 183.219 38.2449C188.307 38.2449 192.499 36.5682 195.794 33.215L201.605 39.8926C199.523 42.3787 196.893 44.2577 193.713 45.5296C190.533 46.8016 186.948 47.4375 182.959 47.4375C177.871 47.4375 173.391 46.4258 169.517 44.4022C165.643 42.3787 162.637 39.5746 160.498 35.9901C158.417 32.3477 157.376 28.2428 157.376 23.6754C157.376 19.1658 158.388 15.1187 160.411 11.5342C162.493 7.8918 165.354 5.05885 168.997 3.03531C172.639 1.01177 176.744 0 181.311 0C185.821 0 189.839 1.01177 193.366 3.03531C196.951 5.00103 199.726 7.80508 201.691 11.4474C203.715 15.032 204.727 19.1947 204.727 23.9356ZM181.311 8.67231C177.843 8.67231 174.894 9.71299 172.466 11.7943C170.095 13.8179 168.65 16.5352 168.13 19.9463H194.407C193.944 16.593 192.528 13.8757 190.157 11.7943C187.787 9.71299 184.838 8.67231 181.311 8.67231Z" fill="white"/>
</svg>
