<svg width="48" height="48" viewBox="0 0 48 48" fill="none" xmlns="http://www.w3.org/2000/svg">
<rect y="48" width="48" height="48" rx="14" transform="rotate(-90 0 48)" fill="#0C0118" fill-opacity="0.05"/>
<path d="M23.8839 18.1161C23.3957 17.628 22.6043 17.628 22.1161 18.1161C21.628 18.6043 21.628 19.3957 22.1161 19.8839L23.8839 18.1161ZM22.1161 28.1161C21.628 28.6043 21.628 29.3957 22.1161 29.8839C22.6043 30.372 23.3957 30.372 23.8839 29.8839L22.1161 28.1161ZM26.5858 25.4142L25.7019 24.5303L26.5858 25.4142ZM27.4697 21.7019L23.8839 18.1161L22.1161 19.8839L25.7019 23.4697L27.4697 21.7019ZM25.7019 24.5303L22.1161 28.1161L23.8839 29.8839L27.4697 26.2981L25.7019 24.5303ZM25.7019 23.4697C25.9948 23.7626 25.9948 24.2374 25.7019 24.5303L27.4697 26.2981C28.7389 25.0289 28.7389 22.9711 27.4697 21.7019L25.7019 23.4697Z" fill="#9E99A3"/>
</svg>
