<svg width="100" height="100" viewBox="0 0 100 100" fill="none" xmlns="http://www.w3.org/2000/svg">
<mask id="mask0" mask-type="alpha" maskUnits="userSpaceOnUse" x="0" y="0" width="100" height="100">
<path fill-rule="evenodd" clip-rule="evenodd" d="M65.1358 0C75.175 0 80.1933 0 85.5975 1.70833C91.4975 3.85583 96.1442 8.5025 98.2917 14.4025C100 19.8058 100 24.8258 100 34.8642V65.1358C100 75.175 100 80.1933 98.2917 85.5975C96.1442 91.4975 91.4975 96.1442 85.5975 98.2908C80.1933 100 75.175 100 65.1358 100H34.8642C24.825 100 19.8058 100 14.4025 98.2908C8.5025 96.1442 3.85583 91.4975 1.70833 85.5975C0 80.1933 0 75.175 0 65.1358V34.8642C0 24.8258 0 19.8058 1.70833 14.4025C3.85583 8.5025 8.5025 3.85583 14.4025 1.70833C19.8058 0 24.825 0 34.8642 0H65.1358Z" fill="white"/>
</mask>
<g mask="url(#mask0)">
<rect width="100" height="100"/>
<rect width="86" height="86" transform="translate(7 7)" fill="white"/>
<path fill-rule="evenodd" clip-rule="evenodd" d="M34.8828 20.7734H40.9297V26.8203H34.8828V20.7734Z" fill="#9B1300"/>
<path fill-rule="evenodd" clip-rule="evenodd" d="M28.8359 20.7734H34.8828V26.8203H28.8359V20.7734Z" fill="#9B1300"/>
<path fill-rule="evenodd" clip-rule="evenodd" d="M40.9297 26.8203H46.9766V32.8672H40.9297V26.8203Z" fill="#9B1300"/>
<path fill-rule="evenodd" clip-rule="evenodd" d="M40.9297 26.8203V32.8672H34.8828V26.8203H40.9297Z" fill="#C21A02"/>
<path fill-rule="evenodd" clip-rule="evenodd" d="M28.8359 26.8203H34.8828V32.8672H28.8359V26.8203Z" fill="#C21A02"/>
<path fill-rule="evenodd" clip-rule="evenodd" d="M40.9297 32.8672H46.9766V38.9141H40.9297V32.8672Z" fill="#C21A02"/>
<path fill-rule="evenodd" clip-rule="evenodd" d="M34.8828 32.8672H40.9297V38.9141H34.8828V32.8672Z" fill="#FE2113"/>
<path fill-rule="evenodd" clip-rule="evenodd" d="M28.8359 32.8672H34.8828V38.9141H28.8359V32.8672Z" fill="#C21A02"/>
<path fill-rule="evenodd" clip-rule="evenodd" d="M34.8828 38.9141H40.9297V44.9609H34.8828V38.9141Z" fill="#FD3C21"/>
<path fill-rule="evenodd" clip-rule="evenodd" d="M28.8359 38.9141H34.8828V44.9609H28.8359V38.9141Z" fill="#EF260A"/>
<path fill-rule="evenodd" clip-rule="evenodd" d="M22.7891 38.9141H28.8359V44.9609H22.7891V38.9141Z" fill="#C21A02"/>
<path fill-rule="evenodd" clip-rule="evenodd" d="M34.8828 44.9609H40.9297V51.0078H34.8828V44.9609Z" fill="#EF260A"/>
<path fill-rule="evenodd" clip-rule="evenodd" d="M28.8359 44.9609H34.8828V51.0078H28.8359V44.9609Z" fill="#EF260A"/>
<path fill-rule="evenodd" clip-rule="evenodd" d="M22.7891 44.9609H28.8359V51.0078H22.7891V44.9609Z" fill="#C21A02"/>
<path fill-rule="evenodd" clip-rule="evenodd" d="M40.9297 51.0078H46.9766V57.0547H40.9297V51.0078Z" fill="#FE2113"/>
<path fill-rule="evenodd" clip-rule="evenodd" d="M34.8828 51.0078H40.9297V57.0547H34.8828V51.0078Z" fill="#EF260A"/>
<path fill-rule="evenodd" clip-rule="evenodd" d="M28.8359 51.0078H34.8828V57.0547H28.8359V51.0078Z" fill="#C21A02"/>
<path fill-rule="evenodd" clip-rule="evenodd" d="M46.9766 57.0547H53.0234V63.1016H46.9766V57.0547Z" fill="#FE2113"/>
<path fill-rule="evenodd" clip-rule="evenodd" d="M46.9766 51.0078H53.0234V57.0547H46.9766V51.0078Z" fill="#FF3528"/>
<path fill-rule="evenodd" clip-rule="evenodd" d="M40.9297 57.0547H46.9766V63.1016H40.9297V57.0547Z" fill="#EF260A"/>
<path fill-rule="evenodd" clip-rule="evenodd" d="M34.8828 57.0547H40.9297V63.1016H34.8828V57.0547Z" fill="#C21A02"/>
<path fill-rule="evenodd" clip-rule="evenodd" d="M53.0234 63.1016H59.0703V69.1484H53.0234V63.1016Z" fill="#C21A02"/>
<path fill-rule="evenodd" clip-rule="evenodd" d="M46.9766 63.1016H53.0234V69.1484H46.9766V63.1016Z" fill="#EF260A"/>
<path fill-rule="evenodd" clip-rule="evenodd" d="M46.9766 69.1484H53.0234V75.1953H46.9766V69.1484Z" fill="#C21A02"/>
<path fill-rule="evenodd" clip-rule="evenodd" d="M40.9297 63.1016H46.9766V69.1484H40.9297V63.1016Z" fill="#C21A02"/>
<path fill-rule="evenodd" clip-rule="evenodd" d="M65.1172 51.0078H71.1641V57.0547H65.1172V51.0078Z" fill="#C21A02"/>
<path fill-rule="evenodd" clip-rule="evenodd" d="M59.0703 51.0078H65.1172V57.0547H59.0703V51.0078Z" fill="#EF260A"/>
<path fill-rule="evenodd" clip-rule="evenodd" d="M53.0234 51.0078H59.0703V57.0547H53.0234V51.0078Z" fill="#FE2113"/>
<path fill-rule="evenodd" clip-rule="evenodd" d="M59.0703 57.0547H65.1172V63.1016H59.0703V57.0547Z" fill="#C21A02"/>
<path fill-rule="evenodd" clip-rule="evenodd" d="M53.0234 57.0547H59.0703V63.1016H53.0234V57.0547Z" fill="#EF260A"/>
<path fill-rule="evenodd" clip-rule="evenodd" d="M71.1641 44.9609H77.2109V51.0078H71.1641V44.9609Z" fill="#C21A02"/>
<path fill-rule="evenodd" clip-rule="evenodd" d="M65.1172 44.9609H71.1641V51.0078H65.1172V44.9609Z" fill="#EF260A"/>
<path fill-rule="evenodd" clip-rule="evenodd" d="M71.1641 38.9141H77.2109V44.9609H71.1641V38.9141Z" fill="#C21A02"/>
<path fill-rule="evenodd" clip-rule="evenodd" d="M71.1641 38.9141V44.9609H65.1172V38.9141H71.1641Z" fill="#EF260A"/>
<path fill-rule="evenodd" clip-rule="evenodd" d="M77.2109 32.8672V38.9141H71.1641V32.8672H77.2109Z" fill="#C21A02"/>
<path fill-rule="evenodd" clip-rule="evenodd" d="M65.1172 32.8672H71.1641V38.9141H65.1172V32.8672Z" fill="#C21A02"/>
<path fill-rule="evenodd" clip-rule="evenodd" d="M59.0703 32.8672H65.1172V38.9141H59.0703V32.8672Z" fill="#FE2113"/>
<path fill-rule="evenodd" clip-rule="evenodd" d="M65.1172 26.8203H71.1641V32.8672H65.1172V26.8203Z" fill="#C21A02"/>
<path fill-rule="evenodd" clip-rule="evenodd" d="M59.0703 26.8203H65.1172V32.8672H59.0703V26.8203Z" fill="#C21A02"/>
<path fill-rule="evenodd" clip-rule="evenodd" d="M53.0234 26.8203H59.0703V32.8672H53.0234V26.8203Z" fill="#9B1300"/>
<path fill-rule="evenodd" clip-rule="evenodd" d="M53.0234 38.9141V44.9609H46.9766V38.9141C50 38.9141 53.0234 38.9141 53.0234 38.9141Z" fill="#C21A02"/>
<path fill-rule="evenodd" clip-rule="evenodd" d="M53.0234 32.8672H59.0703V38.9141H53.0234V32.8672Z" fill="#C21A02"/>
<path fill-rule="evenodd" clip-rule="evenodd" d="M46.9766 32.8672H53.0234V38.9141H46.9766V32.8672Z" fill="#9B1300"/>
<path fill-rule="evenodd" clip-rule="evenodd" d="M40.9297 38.9141H46.9766V44.9609H40.9297V38.9141Z" fill="#FE2113"/>
<path fill-rule="evenodd" clip-rule="evenodd" d="M46.9766 44.9609H53.0234V51.0078H46.9766V44.9609Z" fill="#FE2113"/>
<path fill-rule="evenodd" clip-rule="evenodd" d="M40.9297 44.9609H46.9766V51.0078H40.9297V44.9609Z" fill="#FF3528"/>
<path fill-rule="evenodd" clip-rule="evenodd" d="M22.7891 26.8203H28.8359V32.8672H22.7891V26.8203Z" fill="#9B1300"/>
<path fill-rule="evenodd" clip-rule="evenodd" d="M22.7891 32.8672H28.8359V38.9141H22.7891V32.8672Z" fill="#C21A02"/>
<path fill-rule="evenodd" clip-rule="evenodd" d="M16.7422 32.8672H22.7891V38.9141H16.7422V32.8672Z" fill="#9B1300"/>
<path fill-rule="evenodd" clip-rule="evenodd" d="M16.7422 38.9141H22.7891V44.9609H16.7422V38.9141Z" fill="#9B1300"/>
<path fill-rule="evenodd" clip-rule="evenodd" d="M16.7422 44.9609H22.7891V51.0078H16.7422V44.9609Z" fill="#9B1300"/>
<path fill-rule="evenodd" clip-rule="evenodd" d="M22.7891 51.0078H28.8359V57.0547H22.7891V51.0078Z" fill="#9B1300"/>
<path fill-rule="evenodd" clip-rule="evenodd" d="M28.8359 57.0547H34.8828V63.1016H28.8359V57.0547Z" fill="#9B1300"/>
<path fill-rule="evenodd" clip-rule="evenodd" d="M40.9297 63.1016V69.1484H34.8828V63.1016H40.9297Z" fill="#9B1300"/>
<path fill-rule="evenodd" clip-rule="evenodd" d="M40.9297 69.1484H46.9766V75.1953H40.9297V69.1484Z" fill="#9B1300"/>
<path fill-rule="evenodd" clip-rule="evenodd" d="M53.0234 75.1953V81.2422H46.9766V75.1953H53.0234Z" fill="#9B1300"/>
<path fill-rule="evenodd" clip-rule="evenodd" d="M53.0234 69.1484H59.0703V75.1953H53.0234V69.1484Z" fill="#9B1300"/>
<path fill-rule="evenodd" clip-rule="evenodd" d="M59.0703 63.1016H65.1172V69.1484H59.0703V63.1016Z" fill="#9B1300"/>
<path fill-rule="evenodd" clip-rule="evenodd" d="M65.1172 57.0547H71.1641V63.1016H65.1172V57.0547Z" fill="#9B1300"/>
<path fill-rule="evenodd" clip-rule="evenodd" d="M71.1641 51.0078H77.2109V57.0547H71.1641V51.0078Z" fill="#9B1300"/>
<path fill-rule="evenodd" clip-rule="evenodd" d="M77.2109 44.9609H83.2578V51.0078H77.2109V44.9609Z" fill="#9B1300"/>
<path fill-rule="evenodd" clip-rule="evenodd" d="M77.2109 38.9141H83.2578V44.9609H77.2109V38.9141Z" fill="#9B1300"/>
<path fill-rule="evenodd" clip-rule="evenodd" d="M77.2109 32.8672H83.2578V38.9141H77.2109V32.8672Z" fill="#9B1300"/>
<path fill-rule="evenodd" clip-rule="evenodd" d="M71.1641 26.8203H77.2109V32.8672H71.1641V26.8203Z" fill="#9B1300"/>
<path fill-rule="evenodd" clip-rule="evenodd" d="M65.1172 20.7734H71.1641V26.8203H65.1172V20.7734Z" fill="#9B1300"/>
<path fill-rule="evenodd" clip-rule="evenodd" d="M59.0703 20.7734H65.1172V26.8203H59.0703V20.7734Z" fill="#9B1300"/>
<path fill-rule="evenodd" clip-rule="evenodd" d="M59.0703 44.9609H65.1172V51.0078H59.0703V44.9609Z" fill="#EF260A"/>
<path fill-rule="evenodd" clip-rule="evenodd" d="M65.1172 38.9141V44.9609H59.0703V38.9141H65.1172Z" fill="#FD3C21"/>
<path fill-rule="evenodd" clip-rule="evenodd" d="M59.0703 38.9141V44.9609H53.0234V38.9141H59.0703Z" fill="#FE2113"/>
<path fill-rule="evenodd" clip-rule="evenodd" d="M53.0234 44.9609H59.0703V51.0078H53.0234V44.9609Z" fill="#FF3528"/>
<rect width="100" height="100" fill="#282749"/>
<rect width="100" height="100" fill="#1B1973"/>
<rect width="100" height="100" fill="#282749"/>
<path d="M50 57.5002C45.8579 57.5002 42.5 54.1423 42.5 50.0002C42.5 45.858 45.8579 42.5002 50 42.5002C54.1421 42.5002 57.5 45.858 57.5 50.0002C57.5 54.1423 54.1421 57.5002 50 57.5002Z" fill="white"/>
<path d="M77 69.5003L77 77.0003L23 77.0003L23 69.5003L23 60.5003L30.5 60.5003L30.5 69.5003L77 69.5003Z" fill="#BFC0DB"/>
<path fill-rule="evenodd" clip-rule="evenodd" d="M23 23L23 51.5L30.5 51.5L30.5 30.5L53 30.5L53 23L23 23Z" fill="#6C6DA0"/>
<path d="M77 23L77 60.5L69.5 60.5L69.5 23L77 23Z" fill="#595FF1"/>
<path d="M62 23L62 30.5L69.5 30.5L69.5 23L62 23Z" fill="#595FF1"/>
</g>
</svg>
