<svg width="100" height="100" viewBox="0 0 100 100" fill="none" xmlns="http://www.w3.org/2000/svg">
<mask id="mask0" mask-type="alpha" maskUnits="userSpaceOnUse" x="0" y="0" width="100" height="100">
<path fill-rule="evenodd" clip-rule="evenodd" d="M65.1358 0C75.175 0 80.1933 0 85.5975 1.70833C91.4975 3.85583 96.1442 8.5025 98.2917 14.4025C100 19.8058 100 24.8258 100 34.8642V65.1358C100 75.175 100 80.1933 98.2917 85.5975C96.1442 91.4975 91.4975 96.1442 85.5975 98.2908C80.1933 100 75.175 100 65.1358 100H34.8642C24.825 100 19.8058 100 14.4025 98.2908C8.5025 96.1442 3.85583 91.4975 1.70833 85.5975C0 80.1933 0 75.175 0 65.1358V34.8642C0 24.8258 0 19.8058 1.70833 14.4025C3.85583 8.5025 8.5025 3.85583 14.4025 1.70833C19.8058 0 24.825 0 34.8642 0H65.1358Z" fill="white"/>
</mask>
<g mask="url(#mask0)">
<rect width="100" height="100" fill="#1B1973"/>
<rect width="100" height="100" fill="#12151F"/>
<path d="M45.7583 92.7506C48.384 94.2564 51.616 94.2564 54.2417 92.7506L84.7417 75.2594C87.3731 73.7503 89 70.955 89 67.9237V32.9563C89 29.925 87.3731 27.1296 84.7417 25.6205L54.2417 8.12934C51.616 6.62356 48.384 6.62355 45.7583 8.12933L15.2583 25.6205C12.6269 27.1296 11 29.925 11 32.9563V67.9237C11 70.955 12.6269 73.7503 15.2583 75.2594L45.7583 92.7506Z" fill="#12151F" stroke="#FCB914" stroke-width="4"/>
<path fill-rule="evenodd" clip-rule="evenodd" d="M38.333 70.2083L26.6664 63.6188V37.2611L38.333 30.6716L38.333 56.0762L50.333 44.9695L61.6663 56.0762V30.6716L73.333 37.2611V63.6188L61.6663 70.2083L50.333 59.0601L38.333 70.2083Z" fill="#FBC015"/>
</g>
</svg>
